<svg version="1.2" xmlns="http://www.w3.org/2000/svg" viewBox="0 0 1070 760" width="1070" height="760">
	<title>clip_training-svg</title>
	<style>
		tspan { white-space:pre } 
		.s0 { fill: #ffffff } 
		.s1 { fill: #f0f0f2;stroke: #ffffff;stroke-width: 2 } 
		.s2 { fill: none;stroke: #000000;stroke-width: 1.5 } 
		.s3 { fill: #000000 } 
		.s4 { fill: #5135ff;stroke: #ffffff;stroke-width: 2 } 
		.s5 { fill: #dcd7ff;stroke: #ffffff;stroke-width: 2 } 
		.t6 { font-size: 24px;fill: #000000;font-weight: 400;font-family: "DejaVuSans", "DejaVu Sans" } 
		.s7 { fill: #dcf8e0;stroke: #ffffff;stroke-width: 2 } 
		.t8 { font-size: 24px;fill: #ffffff;font-weight: 400;font-family: "DejaVuSans", "DejaVu Sans" } 
		.s9 { fill: #ccf1ff;stroke: #ffffff;stroke-width: 2 } 
	</style>
	<path id="Layer" class="s0" d="m0 0h1070v760h-1070z"/>
	<path id="Layer" class="s1" d="m1055 656h-80v-80h80z"/>
	<path id="Layer" class="s1" d="m1055 416h-80v-80h80z"/>
	<path id="Layer" class="s1" d="m1055 496h-80v-80h80z"/>
	<path id="Layer" class="s1" d="m1055 576h-80v-80h80z"/>
	<path id="Layer" class="s1" d="m975 416h-80v-80h80z"/>
	<path id="Layer" class="s1" d="m975 496h-80v-80h80z"/>
	<path id="Layer" class="s1" d="m975 576h-80v-80h80z"/>
	<path id="Layer" class="s1" d="m895 416h-80v-80h80z"/>
	<path id="Layer" class="s1" d="m895 496h-80v-80h80z"/>
	<path id="Layer" class="s1" d="m815 416h-80v-80h80z"/>
	<path id="Layer" class="s1" d="m815 576h-80v-80h80z"/>
	<path id="Layer" class="s1" d="m735 496h-80v-80h80z"/>
	<path id="Layer" class="s1" d="m735 576h-80v-80h80z"/>
	<path id="Layer" class="s1" d="m735 656h-80v-80h80z"/>
	<path id="Layer" class="s1" d="m815 656h-80v-80h80z"/>
	<path id="Layer" class="s1" d="m895 656h-80v-80h80z"/>
	<path id="Layer" class="s1" d="m735 736h-80v-80h80z"/>
	<path id="Layer" class="s1" d="m815 736h-80v-80h80z"/>
	<path id="Layer" class="s1" d="m895 736h-80v-80h80z"/>
	<path id="Layer" class="s2" d="m307 175h378c5.5 0 10 4.5 10 10v37"/>
	<path id="Layer" class="s2" d="m139 534h61 61"/>
	<path id="Layer" class="s3" d="m257.5 538v-8l14.2 4z"/>
	<path id="Layer" class="s2" d="m139 175h61 61"/>
	<path id="Layer" class="s3" d="m257.5 179v-8l14.2 4z"/>
	<path id="Layer" class="s2" d="m428 534h91.5 21.5"/>
	<path id="Layer" class="s3" d="m539.5 538v-8l14.2 4z"/>
	<path id="Layer" class="s3" d="m539.5 700v-8l14.2 4z"/>
	<path id="Layer" class="s3" d="m539.5 460v-8l14.2 4z"/>
	<path id="Layer" class="s3" d="m539.5 380v-8l14.2 4z"/>
	<path id="Layer" class="s4" d="m181 229h-160v-90h160z"/>
	<path id="Layer" class="s4" d="m175 223h-160v-90h160z"/>
	<path id="Layer" class="s4" d="m169 217h-160v-90h160z"/>
	<path id="Layer" class="s4" d="m163 211h-160v-90h160z"/>
	<path id="Layer copy" class="s4" d="m181 580h-160v-90h160z"/>
	<path id="Layer copy 2" class="s4" d="m175 574h-160v-90h160z"/>
	<path id="Layer copy 3" class="s4" d="m169 568h-160v-90h160z"/>
	<path id="Layer copy 4" class="s4" d="m163 562h-160v-90h160z"/>
	<path id="Layer" fill-rule="evenodd" class="s0" d="m37.5 150.3h2.4v1.2c0.5-0.8 1.5-1.4 2.9-1.4 2.7 0 4.1 1.9 4.1 4.2v1.6c0 2.4-1.4 4.3-4.1 4.3-1.3 0-2.2-0.5-2.7-1.2v4.2h-2.6zm6.9 5.6v-1.4c0-1.3-0.7-2.3-2.2-2.3-1.3 0-2.1 0.9-2.1 2.3v1.4c0 1.5 0.9 2.3 2.1 2.3 1.4 0 2.2-0.9 2.2-2.3zm4.2 0v-1.3c0-2.6 1.5-4.5 4.4-4.5 2.9 0 4.4 1.9 4.4 4.3v1.7h-6.4v0.2c0 1.2 0.6 2.1 2.1 2.1 1.1 0 1.7-0.5 2-1.2h2.2c-0.3 1.8-2.1 3.1-4.2 3.1-2.8 0-4.5-1.6-4.5-4.4zm6.4-1.6v-0.3c0-1.2-0.6-2.1-2-2.1-1.4 0-2 1-2 2.3v0.1zm4.4-4h2.4v1.2c0.5-0.7 1.5-1.4 2.9-1.4 2.7 0 4.1 2 4.1 4.3v1.6c0 2.3-1.5 4.3-4.1 4.3-1.3 0-2.2-0.5-2.7-1.3v4.3h-2.6zm6.9 5.5v-1.3c0-1.3-0.7-2.4-2.2-2.4-1.3 0-2.1 1-2.1 2.4v1.4c0 1.5 0.9 2.3 2.1 2.3 1.4 0 2.2-1 2.2-2.4zm4.6-5.5h2.4v1.2c0.5-0.8 1.5-1.4 2.9-1.4 2.7 0 4.1 2 4.1 4.3v1.6c0 2.3-1.5 4.2-4.1 4.2-1.3 0-2.3-0.5-2.8-1.2v4.3h-2.5zm6.8 5.5v-1.4c0-1.3-0.7-2.3-2.1-2.3-1.3 0-2.2 1-2.2 2.3v1.4c0 1.5 1 2.3 2.1 2.3 1.5 0 2.2-0.9 2.2-2.3zm4.2 0.1v-1.4c0-2.6 1.6-4.5 4.5-4.5 2.9 0 4.3 2 4.3 4.3v1.7h-6.3v0.2c0 1.2 0.6 2.2 2 2.2 1.1 0 1.8-0.6 2-1.3h2.3c-0.4 1.8-2.1 3.1-4.3 3.1-2.7 0-4.5-1.6-4.5-4.3zm6.5-1.7v-0.2c0-1.3-0.6-2.2-2-2.2-1.5 0-2 1-2 2.3v0.1zm4.4-3.9h2.4v1.8c0.3-1.4 1.4-1.9 2.9-1.9h0.3v2.5h-0.5c-1.7 0-2.6 0.8-2.6 2.8v4.5h-2.5zm12.1 6.9v-4.9h-1.4v-2h1.4v-2.7h2.5v2.7h2.1v2h-2.1v4.7c0 0.7 0.3 0.9 0.9 0.9h1.1v2.1h-1.8c-1.9 0-2.7-1.1-2.7-2.8zm6.5-10.9h2.5v5.1c0.5-0.8 1.5-1.4 2.8-1.4 2.1 0 3.4 1.5 3.4 3.8v6.2h-2.5v-5.8c0-1.2-0.6-2-1.8-2-1.1 0-1.9 0.7-1.9 2v5.8h-2.5zm10.7 9.5v-1.3c0-2.7 1.6-4.5 4.5-4.5 2.8 0 4.3 1.9 4.3 4.2v1.7h-6.4v0.3c0 1.1 0.6 2.1 2.1 2.1 1.1 0 1.8-0.6 2-1.2h2.2c-0.3 1.7-2.1 3-4.2 3-2.7 0-4.5-1.6-4.5-4.3zm6.5-1.7v-0.2c0-1.2-0.7-2.1-2-2.1-1.5 0-2.1 0.9-2.1 2.2v0.1zm-91.6 27c0-2.1 1.6-3.1 4-3.1 1.1 0 2 0.5 2.4 0.8v-1.3c0-0.9-0.6-1.6-1.6-1.6-0.9 0-1.5 0.4-1.7 1h-2.4c0.6-1.9 2.1-2.9 4.2-2.9 2.4 0 4.1 1.4 4.1 3.7v6.2h-2.5v-0.9c-0.4 0.7-1.7 1.1-2.8 1.1-2.2 0-3.7-1.1-3.7-3zm6.4-0.1c0-0.9-0.8-1.4-1.9-1.4-1.2 0-2 0.5-2 1.4 0 0.9 0.8 1.4 1.9 1.4 1.1 0 2-0.6 2-1.4zm4.9-0.6v-6.2h2.5v5.9c0 1.2 0.6 1.9 1.7 1.9 1.2 0 1.9-0.8 1.9-2v-5.8h2.5v9.7h-2.4v-1.2c-0.4 0.9-1.6 1.4-2.8 1.4-2.2 0-3.4-1.5-3.4-3.7zm10.7 0.6v-0.1h2.3v0.1c0 0.8 0.7 1.3 1.9 1.3 1.1 0 1.9-0.4 1.9-1.1 0-0.5-0.3-0.8-0.8-0.9l-2.9-0.7c-1.5-0.3-2.2-1.1-2.2-2.5 0-2 1.6-3.1 3.9-3.1 2.3 0 3.8 1.1 3.8 3.1v0.1h-2.2v-0.2c0-0.7-0.5-1.2-1.6-1.2-1 0-1.6 0.4-1.6 1 0 0.5 0.3 0.8 0.8 0.9l2.9 0.7c1.5 0.3 2.2 1.1 2.2 2.5 0 1.9-1.8 3.2-4.2 3.2-2.5 0-4.2-1-4.2-3.1zm9.9 0v-0.1h2.3v0.1c0 0.8 0.7 1.3 1.9 1.3 1.1 0 1.9-0.4 1.9-1.1 0-0.5-0.3-0.8-0.8-0.9l-2.9-0.7c-1.5-0.3-2.2-1.1-2.2-2.5 0-2 1.6-3.1 3.9-3.1 2.3 0 3.8 1.1 3.8 3.1v0.1h-2.2v-0.2c0-0.7-0.4-1.2-1.6-1.2-1 0-1.5 0.4-1.5 1 0 0.5 0.2 0.8 0.7 0.9l2.9 0.7c1.5 0.3 2.2 1.1 2.2 2.5 0 1.9-1.8 3.2-4.2 3.2-2.5 0-4.2-1-4.2-3.1zm10.3-9.3c0-0.9 0.6-1.5 1.5-1.5 0.9 0 1.5 0.6 1.5 1.5 0 0.8-0.6 1.4-1.5 1.4-0.9 0-1.5-0.6-1.5-1.4zm0.2 2.5h2.6v9.7h-2.6zm4.8 5.6v-1.3c0-2.7 1.6-4.5 4.5-4.5 2.9 0 4.3 1.9 4.3 4.2v1.7h-6.3v0.3c0 1.1 0.5 2.1 2 2.1 1.1 0 1.8-0.6 2-1.2h2.2c-0.3 1.7-2 3-4.2 3-2.7 0-4.5-1.6-4.5-4.3zm6.5-1.7v-0.2c0-1.2-0.7-2.1-2-2.1-1.5 0-2 0.9-2 2.2v0.1zm8.5-3.9h2.4v1.2c0.5-0.8 1.5-1.4 2.9-1.4 2.6 0 4.1 2 4.1 4.2v1.7c0 2.3-1.5 4.2-4.1 4.2-1.3 0-2.3-0.5-2.8-1.2v4.3h-2.5zm6.8 5.5v-1.4c0-1.3-0.7-2.3-2.1-2.3-1.3 0-2.2 1-2.2 2.3v1.4c0 1.5 1 2.3 2.1 2.3 1.5 0 2.2-0.9 2.2-2.3zm4.5 0.7v-6.2h2.6v5.8c0 1.2 0.6 2 1.7 2 1.2 0 1.8-0.8 1.8-2v-5.8h2.6v9.7h-2.4v-1.2c-0.5 0.8-1.6 1.4-2.9 1.4-2.1 0-3.4-1.5-3.4-3.7zm11.2-6.2h2.4v1.1c0.5-0.7 1.5-1.4 2.9-1.4 2.7 0 4.1 2 4.1 4.3v1.6c0 2.3-1.5 4.3-4.1 4.3-1.3 0-2.3-0.5-2.8-1.3v4.3h-2.5zm6.8 5.6v-1.4c0-1.3-0.7-2.4-2.1-2.4-1.3 0-2.2 1-2.2 2.4v1.4c0 1.5 1 2.3 2.1 2.3 1.5 0 2.2-1 2.2-2.3z"/>
	<path id="Layer" class="s5" d="m272 75l160 33.3v133.4l-160 33.3z"/>
	<text id="Context Encoder" style="transform: matrix(1,0,0,1,294,146)" >
		<tspan x="0" y="18.2" class="t6">Context </tspan>
		<tspan x="0" y="47" class="t6">Encoder</tspan><tspan  y="47" class="t6">
</tspan>
	</text>
	<path id="Layer" class="s7" d="m272 436l160 33.3v133.4l-160 33.3z"/>
	<path id="Layer" class="s5" d="m735 316h-80v-80h80z"/>
	<path id="Layer" class="s5" d="m815 316h-80v-80h80z"/>
	<text id="who is a good dog?" style="transform: matrix(1,0,0,1,10,487)" >
		<tspan x="21.2" y="18.2" class="t8">w</tspan><tspan  y="18.2" class="t8">h</tspan><tspan  y="18.2" class="t8">o</tspan><tspan  y="18.2" class="t8"> </tspan><tspan  y="18.2" class="t8">i</tspan><tspan  y="18.2" class="t8">s</tspan><tspan  y="18.2" class="t8"> </tspan><tspan  y="18.2" class="t8">a</tspan><tspan  y="18.2" class="t8">
</tspan>
		<tspan x="7.8" y="47" class="t8">g</tspan><tspan  y="47" class="t8">o</tspan><tspan  y="47" class="t8">o</tspan><tspan  y="47" class="t8">d</tspan><tspan  y="47" class="t8"> </tspan><tspan  y="47" class="t8">d</tspan><tspan  y="47" class="t8">o</tspan><tspan  y="47" class="t8">g</tspan><tspan  y="47" class="t8">?</tspan><tspan  y="47" class="t8">
</tspan>
	</text>
	<path id="Layer" class="s5" d="m895 316h-80v-80h80z"/>
	<path id="Layer" class="s5" d="m975 316h-80v-80h80z"/>
	<text id="Question Encoder" style="transform: matrix(1,0,0,1,300,528)" >
		<tspan x="0" y="0" class="t6">Q</tspan><tspan  y="0" class="t6">u</tspan><tspan  y="0" class="t6">e</tspan><tspan  y="0" class="t6">s</tspan><tspan  y="0" class="t6">t</tspan><tspan  y="0" class="t6">i</tspan><tspan  y="0" class="t6">o</tspan><tspan  y="0" class="t6">n</tspan><tspan  y="0" class="t6">
</tspan>
		<tspan x="0" y="28.8" class="t6">E</tspan><tspan  y="28.8" class="t6">n</tspan><tspan  y="28.8" class="t6">c</tspan><tspan  y="28.8" class="t6">o</tspan><tspan  y="28.8" class="t6">d</tspan><tspan  y="28.8" class="t6">e</tspan><tspan  y="28.8" class="t6">r
</tspan>
	</text>
	<path id="Layer" class="s5" d="m1055 316h-80v-80h80z"/>
	<path id="Layer" class="s3" d="m693.4 269h-4.2l0.3-1.5h10.2l-0.3 1.5h-4.2l-2.2 12.5h-1.8z"/>
	<path id="Layer" class="s3" d="m702.5 278.9l-2.6 1 0.2-1.3 2.9-1.3h1.2l-2 11.7h-1.5z"/>
	<path id="Layer" class="s3" d="m773.4 269h-4.2l0.3-1.5h10.2l-0.3 1.5h-4.2l-2.2 12.5h-1.8z"/>
	<path id="Layer" class="s3" d="m777.1 287.8l5.8-5c0.8-0.7 1.6-1.6 1.6-2.7 0-1.1-0.9-1.8-2-1.8-1.5 0-2.2 0.8-2.5 2.2v0.2h-1.5l0.1-0.3c0.4-2.2 1.7-3.3 4-3.3 1.8 0 3.4 1.1 3.4 2.9 0 1.6-1 2.6-2.3 3.8l-4.7 4h5.8l-0.3 1.2h-7.6z"/>
	<path id="Layer" class="s3" d="m853.4 269h-4.2l0.3-1.5h10.2l-0.3 1.5h-4.2l-2.2 12.5h-1.8z"/>
	<path id="Layer" class="s3" d="m866.5 278.6l-3.9 3.9c1.9 0 3.4 1.2 3.4 2.9 0 2.4-1.9 3.8-4.4 3.8-2 0-3.9-1.1-3.7-3.4h1.3c-0.1 1.4 1 2.2 2.5 2.2 1.5 0 2.8-1 2.8-2.4 0-1.3-1.1-2.1-2.6-2.1h-1.2l0.2-1.1 3.7-3.9h-4.9l0.2-1.2h6.8z"/>
	<path id="Layer" class="s3" d="m1012.4 269h-4.2l0.3-1.5h10.2l-0.3 1.5h-4.2l-2.2 12.5h-1.8z"/>
	<path id="Layer" class="s3" d="m1019.3 277.3h1.4l4.5 9.3 1.6-9.3h1.5l-2.1 11.7h-1.4l-4.4-9.3-1.7 9.3h-1.4z"/>
	<path id="Layer" class="s7" d="m635 416h-80v-80h80z"/>
	<path id="Layer" class="s7" d="m635 496h-80v-80h80z"/>
	<path id="Layer" class="s7" d="m635 576h-80v-80h80z"/>
	<path id="Layer" class="s7" d="m635 656h-80v-80h80z"/>
	<path id="Layer" class="s7" d="m635 736h-80v-80h80z"/>
	<path id="Layer" class="s3" d="m587.1 380.1h3.3l2-11.2h-3.3l0.2-1.4h8.5l-0.3 1.4h-3.3l-1.9 11.2h3.3l-0.3 1.4h-8.5z"/>
	<path id="Layer" class="s3" d="m602.5 378.9l-2.6 1 0.2-1.3 2.9-1.3h1.2l-2 11.7h-1.5z"/>
	<path id="Layer" class="s3" d="m587.1 460.1h3.3l2-11.2h-3.3l0.2-1.4h8.5l-0.3 1.4h-3.3l-1.9 11.2h3.3l-0.3 1.4h-8.5z"/>
	<path id="Layer" class="s3" d="m598.1 467.8l5.8-5c0.8-0.7 1.6-1.6 1.6-2.7 0-1.1-0.9-1.8-2-1.8-1.5 0-2.2 0.8-2.5 2.2v0.2h-1.5l0.1-0.3c0.4-2.2 1.7-3.3 4-3.3 1.8 0 3.4 1.1 3.4 2.9 0 1.6-1 2.6-2.3 3.8l-4.7 4h5.8l-0.3 1.2h-7.6z"/>
	<path id="Layer" class="s3" d="m587.1 540.1h3.3l2-11.2h-3.3l0.2-1.4h8.5l-0.3 1.4h-3.3l-1.9 11.2h3.3l-0.3 1.4h-8.5z"/>
	<path id="Layer" class="s3" d="m607.5 538.6l-3.9 3.8c1.9 0.1 3.4 1.3 3.4 3 0 2.3-1.9 3.8-4.4 3.8-2 0-3.9-1.1-3.7-3.4h1.3c-0.1 1.4 1 2.2 2.5 2.2 1.5 0 2.8-1 2.8-2.4 0-1.3-1.1-2.1-2.6-2.1h-1.2l0.2-1.1 3.7-3.9h-4.9l0.2-1.2h6.8z"/>
	<path id="Layer" class="s3" d="m586.1 700.1h3.3l2-11.2h-3.3l0.2-1.4h8.5l-0.3 1.4h-3.3l-1.9 11.2h3.3l-0.3 1.4h-8.5z"/>
	<path id="Layer" class="s3" d="m599.3 697.3h1.4l4.5 9.3 1.6-9.3h1.5l-2.1 11.7h-1.4l-4.4-9.2-1.7 9.2h-1.4z"/>
	<path id="Layer" class="s2" d="m494 534v-148c0-5.5 4.5-10 10-10h37"/>
	<path id="Layer" class="s3" d="m1011 220.5h8l-4 14.2z"/>
	<path id="Layer" class="s2" d="m844 175h161c5.5 0 10 4.5 10 10v37"/>
	<path id="Layer" class="s3" d="m851 220.5h8l-4 14.2z"/>
	<path id="Layer" class="s3" d="m771 220.5h8l-4 14.2z"/>
	<path id="Layer" class="s3" d="m691 220.5h8l-4 14.2z"/>
	<path id="Layer" class="s2" d="m697 175h148c5.5 0 10 4.5 10 10v37"/>
	<path id="Layer" class="s2" d="m684 175h81c5.5 0 10 4.5 10 10v37"/>
	<path id="Layer" class="s2" d="m545 696h-41c-5.5 0-10-4.5-10-10v-156"/>
	<path id="Layer" class="s2" d="m494 534v-68c0-5.5 4.5-10 10-10h37"/>
	<path id="Layer" class="s3" d="m928.5 205c0-0.6 0.5-1.1 1.2-1.1 0.6 0 1.1 0.5 1.1 1.1 0 0.7-0.5 1.1-1.1 1.1-0.7 0-1.2-0.4-1.2-1.1zm4.9 0c0-0.6 0.4-1.1 1.1-1.1 0.7 0 1.1 0.5 1.1 1.1 0 0.7-0.4 1.1-1.1 1.1-0.7 0-1.1-0.4-1.1-1.1zm4.8 0c0-0.6 0.5-1.1 1.1-1.1 0.7 0 1.2 0.5 1.2 1.1 0 0.7-0.5 1.1-1.2 1.1-0.6 0-1.1-0.4-1.1-1.1z"/>
	<path id="Layer" class="s3" d="m928.5 278c0-0.6 0.5-1.1 1.2-1.1 0.6 0 1.1 0.5 1.1 1.1 0 0.7-0.5 1.1-1.1 1.1-0.7 0-1.2-0.4-1.2-1.1zm4.9 0c0-0.6 0.4-1.1 1.1-1.1 0.7 0 1.1 0.5 1.1 1.1 0 0.7-0.4 1.1-1.1 1.1-0.7 0-1.1-0.4-1.1-1.1zm4.8 0c0-0.6 0.5-1.1 1.1-1.1 0.7 0 1.2 0.5 1.2 1.1 0 0.7-0.5 1.1-1.2 1.1-0.6 0-1.1-0.4-1.1-1.1z"/>
	<path id="Layer" class="s3" d="m596 621.5c-0.6 0-1.1-0.5-1.1-1.2 0-0.6 0.5-1.1 1.1-1.1 0.7 0 1.1 0.5 1.1 1.1 0 0.7-0.4 1.2-1.1 1.2zm0-4.9c-0.6 0-1.1-0.4-1.1-1.1 0-0.7 0.5-1.1 1.1-1.1 0.7 0 1.1 0.4 1.1 1.1 0 0.7-0.4 1.1-1.1 1.1zm0-4.8c-0.6 0-1.1-0.5-1.1-1.1 0-0.7 0.5-1.2 1.1-1.2 0.7 0 1.1 0.5 1.1 1.2 0 0.6-0.4 1.1-1.1 1.1z"/>
	<path id="Layer" class="s3" d="m524 621.5c-0.6 0-1.1-0.5-1.1-1.2 0-0.6 0.5-1.1 1.1-1.1 0.7 0 1.1 0.5 1.1 1.1 0 0.7-0.4 1.2-1.1 1.2zm0-4.9c-0.6 0-1.1-0.4-1.1-1.1 0-0.7 0.5-1.1 1.1-1.1 0.7 0 1.1 0.4 1.1 1.1 0 0.7-0.4 1.1-1.1 1.1zm0-4.8c-0.6 0-1.1-0.5-1.1-1.1 0-0.7 0.5-1.2 1.1-1.2 0.7 0 1.1 0.5 1.1 1.2 0 0.6-0.4 1.1-1.1 1.1z"/>
	<path id="Layer" class="s9" d="m735 416h-80v-80h80z"/>
	<path id="Layer" class="s9" d="m815 496h-80v-80h80z"/>
	<path id="Layer" class="s9" d="m895 576h-80v-80h80z"/>
	<g id="Layer">
		<path id="Layer" class="s3" d="m674.1 380.1h3.3l2-11.2h-3.3l0.2-1.4h8.5l-0.3 1.4h-3.3l-1.9 11.2h3.3l-0.3 1.4h-8.5z"/>
		<path id="Layer" class="s3" d="m689.5 378.9l-2.6 1 0.2-1.3 2.9-1.3h1.2l-2 11.7h-1.5z"/>
		<path id="Layer" class="s3" d="m673.1 460.1h3.3l2-11.2h-3.3l0.2-1.4h8.5l-0.3 1.4h-3.3l-1.9 11.2h3.3l-0.3 1.4h-8.5z"/>
		<path id="Layer" class="s3" d="m684.1 467.8l5.8-5c0.8-0.7 1.6-1.6 1.6-2.7 0-1.1-0.9-1.8-2-1.8-1.5 0-2.2 0.8-2.5 2.2v0.2h-1.5l0.1-0.3c0.4-2.2 1.7-3.3 4-3.3 1.8 0 3.4 1.1 3.4 2.9 0 1.6-1 2.6-2.3 3.8l-4.7 4h5.8l-0.3 1.2h-7.6z"/>
		<path id="Layer" class="s3" d="m673.1 540.1h3.3l2-11.2h-3.3l0.2-1.4h8.5l-0.3 1.4h-3.3l-1.9 11.2h3.3l-0.3 1.4h-8.5z"/>
		<path id="Layer" class="s3" d="m693.5 538.6l-3.9 3.8c1.9 0.1 3.4 1.3 3.4 3 0 2.3-1.9 3.8-4.4 3.8-2 0-3.9-1.1-3.7-3.4h1.3c-0.1 1.4 1 2.2 2.5 2.2 1.5 0 2.8-1 2.8-2.4 0-1.3-1.1-2.1-2.6-2.1h-1.2l0.2-1.1 3.7-3.9h-4.9l0.2-1.2h6.8z"/>
		<path id="Layer" class="s3" d="m754.1 380.1h3.3l2-11.2h-3.3l0.2-1.4h8.5l-0.3 1.4h-3.3l-1.9 11.2h3.3l-0.3 1.4h-8.5z"/>
		<path id="Layer" class="s3" d="m769.5 378.9l-2.6 1 0.2-1.3 2.9-1.3h1.2l-2 11.7h-1.5z"/>
		<path id="Layer" class="s3" d="m753.1 460.1h3.3l2-11.2h-3.3l0.2-1.4h8.5l-0.3 1.4h-3.3l-1.9 11.2h3.3l-0.3 1.4h-8.5z"/>
		<path id="Layer" class="s3" d="m764.1 467.8l5.8-5c0.8-0.7 1.6-1.6 1.6-2.7 0-1.1-0.9-1.8-2-1.8-1.5 0-2.2 0.8-2.5 2.2v0.2h-1.5l0.1-0.3c0.4-2.2 1.7-3.3 4-3.3 1.8 0 3.4 1.1 3.4 2.9 0 1.6-1 2.6-2.3 3.8l-4.7 4h5.8l-0.3 1.2h-7.6z"/>
		<path id="Layer" class="s3" d="m753.1 540.1h3.3l2-11.2h-3.3l0.2-1.4h8.5l-0.3 1.4h-3.3l-1.9 11.2h3.3l-0.3 1.4h-8.5z"/>
		<path id="Layer" class="s3" d="m773.5 538.6l-3.9 3.8c1.9 0.1 3.4 1.3 3.4 3 0 2.3-1.9 3.8-4.4 3.8-2 0-3.9-1.1-3.7-3.4h1.3c-0.1 1.4 1 2.2 2.5 2.2 1.5 0 2.8-1 2.8-2.4 0-1.3-1.1-2.1-2.6-2.1h-1.2l0.2-1.1 3.7-3.9h-4.9l0.2-1.2h6.8z"/>
		<path id="Layer" class="s3" d="m834.1 380.1h3.3l2-11.2h-3.3l0.2-1.4h8.5l-0.3 1.4h-3.3l-1.9 11.2h3.3l-0.3 1.4h-8.5z"/>
		<path id="Layer" class="s3" d="m849.5 378.9l-2.6 1 0.2-1.3 2.9-1.3h1.2l-2 11.7h-1.5z"/>
		<path id="Layer" class="s3" d="m833.1 460.1h3.3l2-11.2h-3.3l0.2-1.4h8.5l-0.3 1.4h-3.3l-1.9 11.2h3.3l-0.3 1.4h-8.5z"/>
		<path id="Layer" class="s3" d="m844.1 467.8l5.8-5c0.8-0.7 1.6-1.6 1.6-2.7 0-1.1-0.9-1.8-2-1.8-1.5 0-2.2 0.8-2.5 2.2v0.2h-1.5l0.1-0.3c0.4-2.2 1.7-3.3 4-3.3 1.8 0 3.4 1.1 3.4 2.9 0 1.6-1 2.6-2.3 3.8l-4.7 4h5.8l-0.3 1.2h-7.6z"/>
		<path id="Layer" class="s3" d="m833.1 540.1h3.3l2-11.2h-3.3l0.2-1.4h8.5l-0.3 1.4h-3.3l-1.9 11.2h3.3l-0.3 1.4h-8.5z"/>
		<path id="Layer" class="s3" d="m853.5 538.6l-3.9 3.8c1.9 0.1 3.4 1.3 3.4 3 0 2.3-1.9 3.8-4.4 3.8-2 0-3.9-1.1-3.7-3.4h1.3c-0.1 1.4 1 2.2 2.5 2.2 1.5 0 2.8-1 2.8-2.4 0-1.3-1.1-2.1-2.6-2.1h-1.2l0.2-1.1 3.7-3.9h-4.9l0.2-1.2h6.8z"/>
		<path id="Layer" class="s3" d="m696.8 375.8c0-0.7 0.5-1.2 1.3-1.2 0.6 0 1 0.4 1 1 0 0.7-0.6 1.2-1.3 1.2-0.6 0-1-0.4-1-1zm9.5-6.8h-4.2l0.3-1.5h10.2l-0.3 1.5h-4.2l-2.2 12.5h-1.8z"/>
		<path id="Layer" class="s3" d="m715.5 378.9l-2.6 1 0.2-1.3 2.9-1.3h1.2l-2 11.7h-1.5z"/>
		<path id="Layer" class="s3" d="m697.8 455.8c0-0.7 0.5-1.2 1.3-1.2 0.6 0 1 0.4 1 1 0 0.7-0.6 1.2-1.3 1.2-0.6 0-1-0.4-1-1zm9.5-6.8h-4.2l0.3-1.5h10.2l-0.3 1.5h-4.2l-2.2 12.5h-1.8z"/>
		<path id="Layer" class="s3" d="m716.5 458.9l-2.6 1 0.2-1.3 2.9-1.3h1.2l-2 11.7h-1.5z"/>
		<path id="Layer" class="s3" d="m697.8 535.8c0-0.7 0.5-1.2 1.3-1.2 0.6 0 1 0.4 1 1 0 0.7-0.6 1.2-1.3 1.2-0.6 0-1-0.4-1-1zm9.5-6.8h-4.2l0.3-1.5h10.2l-0.3 1.5h-4.2l-2.2 12.5h-1.8z"/>
		<path id="Layer" class="s3" d="m716.5 538.9l-2.6 1 0.2-1.3 2.9-1.3h1.2l-2 11.7h-1.5z"/>
		<path id="Layer" class="s3" d="m673.1 700.1h3.3l2-11.2h-3.3l0.2-1.4h8.5l-0.3 1.4h-3.3l-1.9 11.2h3.3l-0.3 1.4h-8.5z"/>
		<path id="Layer" class="s3" d="m686.3 697.3h1.4l4.5 9.3 1.6-9.3h1.5l-2.1 11.7h-1.4l-4.4-9.2-1.7 9.2h-1.4z"/>
		<path id="Layer" class="s3" d="m699.8 695.8c0-0.7 0.5-1.2 1.3-1.2 0.6 0 1 0.4 1 1 0 0.7-0.6 1.2-1.3 1.2-0.6 0-1-0.4-1-1zm9.5-6.8h-4.2l0.3-1.5h10.2l-0.3 1.5h-4.2l-2.2 12.5h-1.8z"/>
		<path id="Layer" class="s3" d="m718.5 698.9l-2.6 1 0.2-1.3 2.9-1.3h1.2l-2 11.7h-1.5z"/>
		<path id="Layer" class="s3" d="m776.8 375.8c0-0.7 0.5-1.2 1.3-1.2 0.6 0 1 0.4 1 1 0 0.7-0.6 1.2-1.3 1.2-0.6 0-1-0.4-1-1zm9.5-6.8h-4.2l0.3-1.5h10.2l-0.3 1.5h-4.2l-2.2 12.5h-1.8z"/>
		<path id="Layer" class="s3" d="m790.1 387.8l5.8-5c0.8-0.7 1.6-1.6 1.6-2.7 0-1.1-0.9-1.8-2-1.8-1.5 0-2.2 0.8-2.5 2.2v0.2h-1.5l0.1-0.3c0.4-2.2 1.7-3.3 4-3.3 1.8 0 3.4 1.1 3.4 2.9 0 1.6-1 2.6-2.3 3.8l-4.7 4h5.8l-0.3 1.2h-7.6z"/>
		<path id="Layer" class="s3" d="m777.8 455.8c0-0.7 0.5-1.2 1.3-1.2 0.6 0 1 0.4 1 1 0 0.7-0.6 1.2-1.3 1.2-0.6 0-1-0.4-1-1zm9.5-6.8h-4.2l0.3-1.5h10.2l-0.3 1.5h-4.2l-2.2 12.5h-1.8z"/>
		<path id="Layer" class="s3" d="m791.1 467.8l5.8-5c0.8-0.7 1.6-1.6 1.6-2.7 0-1.1-0.9-1.8-2-1.8-1.5 0-2.2 0.8-2.5 2.2v0.2h-1.5l0.1-0.3c0.4-2.2 1.7-3.3 4-3.3 1.8 0 3.4 1.1 3.4 2.9 0 1.6-1 2.6-2.3 3.8l-4.7 4h5.8l-0.3 1.2h-7.6z"/>
		<path id="Layer" class="s3" d="m777.8 535.8c0-0.7 0.5-1.2 1.3-1.2 0.6 0 1 0.4 1 1 0 0.7-0.6 1.2-1.3 1.2-0.6 0-1-0.4-1-1zm9.5-6.8h-4.2l0.3-1.5h10.2l-0.3 1.5h-4.2l-2.2 12.5h-1.8z"/>
		<path id="Layer" class="s3" d="m791.1 547.8l5.8-5c0.8-0.7 1.6-1.6 1.6-2.7 0-1.1-0.9-1.8-2-1.8-1.5 0-2.2 0.8-2.5 2.2v0.2h-1.5l0.1-0.3c0.4-2.2 1.7-3.3 4-3.3 1.8 0 3.4 1.1 3.4 2.9 0 1.6-1 2.6-2.3 3.8l-4.7 4h5.8l-0.3 1.2h-7.6z"/>
		<path id="Layer" class="s3" d="m752.1 700.1h3.3l2-11.2h-3.3l0.2-1.4h8.5l-0.3 1.4h-3.3l-1.9 11.2h3.3l-0.3 1.4h-8.5z"/>
		<path id="Layer" class="s3" d="m765.3 697.3h1.4l4.5 9.3 1.6-9.3h1.5l-2.1 11.7h-1.4l-4.4-9.2-1.7 9.2h-1.4z"/>
		<path id="Layer" class="s3" d="m778.8 695.8c0-0.7 0.5-1.2 1.3-1.2 0.6 0 1 0.4 1 1 0 0.7-0.6 1.2-1.3 1.2-0.6 0-1-0.4-1-1zm9.5-6.8h-4.2l0.3-1.5h10.2l-0.3 1.5h-4.2l-2.2 12.5h-1.8z"/>
		<path id="Layer" class="s3" d="m792.1 707.8l5.8-5c0.8-0.7 1.6-1.6 1.6-2.7 0-1.1-0.9-1.8-2-1.8-1.5 0-2.2 0.8-2.5 2.2v0.2h-1.5l0.1-0.3c0.4-2.2 1.7-3.3 4-3.3 1.8 0 3.4 1.1 3.4 2.9 0 1.6-1 2.6-2.3 3.8l-4.7 4h5.8l-0.3 1.2h-7.6z"/>
		<path id="Layer" class="s3" d="m856.8 375.8c0-0.7 0.5-1.2 1.3-1.2 0.6 0 1 0.4 1 1 0 0.7-0.6 1.2-1.3 1.2-0.6 0-1-0.4-1-1zm9.5-6.8h-4.2l0.3-1.5h10.2l-0.3 1.5h-4.2l-2.2 12.5h-1.8z"/>
		<path id="Layer" class="s3" d="m879.5 378.6l-3.9 3.9c1.9 0 3.4 1.2 3.4 2.9 0 2.4-1.9 3.8-4.4 3.8-2 0-3.9-1.1-3.7-3.4h1.3c-0.1 1.4 1 2.2 2.5 2.2 1.5 0 2.8-1 2.8-2.4 0-1.3-1.1-2.1-2.6-2.1h-1.2l0.2-1.1 3.7-3.9h-4.9l0.2-1.2h6.8z"/>
		<path id="Layer" class="s3" d="m857.8 455.8c0-0.7 0.5-1.2 1.3-1.2 0.6 0 1 0.4 1 1 0 0.7-0.6 1.2-1.3 1.2-0.6 0-1-0.4-1-1zm9.5-6.8h-4.2l0.3-1.5h10.2l-0.3 1.5h-4.2l-2.2 12.5h-1.8z"/>
		<path id="Layer" class="s3" d="m880.5 458.6l-3.9 3.9c1.9 0 3.4 1.2 3.4 2.9 0 2.4-1.9 3.8-4.4 3.8-2 0-3.9-1.1-3.7-3.4h1.3c-0.1 1.4 1 2.2 2.5 2.2 1.5 0 2.8-1 2.8-2.4 0-1.3-1.1-2.1-2.6-2.1h-1.2l0.2-1.1 3.7-3.9h-4.9l0.2-1.2h6.8z"/>
		<path id="Layer" class="s3" d="m857.8 535.8c0-0.7 0.5-1.2 1.3-1.2 0.6 0 1 0.4 1 1 0 0.7-0.6 1.2-1.3 1.2-0.6 0-1-0.4-1-1zm9.5-6.8h-4.2l0.3-1.5h10.2l-0.3 1.5h-4.2l-2.2 12.5h-1.8z"/>
		<path id="Layer" class="s3" d="m880.5 538.6l-3.9 3.8c1.9 0.1 3.4 1.3 3.4 3 0 2.3-1.9 3.8-4.4 3.8-2 0-3.9-1.1-3.7-3.4h1.3c-0.1 1.4 1 2.2 2.5 2.2 1.5 0 2.8-1 2.8-2.4 0-1.3-1.1-2.1-2.6-2.1h-1.2l0.2-1.1 3.7-3.9h-4.9l0.2-1.2h6.8z"/>
	</g>
	<path id="Layer" class="s1" d="m975 736h-80v-80h80z"/>
	<path id="Layer" class="s3" d="m928.5 698c0-0.6 0.5-1.1 1.2-1.1 0.6 0 1.1 0.5 1.1 1.1 0 0.7-0.5 1.1-1.1 1.1-0.7 0-1.2-0.4-1.2-1.1zm4.9 0c0-0.6 0.4-1.1 1.1-1.1 0.7 0 1.1 0.5 1.1 1.1 0 0.7-0.4 1.1-1.1 1.1-0.7 0-1.1-0.4-1.1-1.1zm4.8 0c0-0.6 0.5-1.1 1.1-1.1 0.7 0 1.2 0.5 1.2 1.1 0 0.7-0.5 1.1-1.2 1.1-0.6 0-1.1-0.4-1.1-1.1z"/>
	<path id="Layer" class="s3" d="m856 621.5c-0.6 0-1.1-0.5-1.1-1.2 0-0.6 0.5-1.1 1.1-1.1 0.7 0 1.1 0.5 1.1 1.1 0 0.7-0.4 1.2-1.1 1.2zm0-4.9c-0.6 0-1.1-0.4-1.1-1.1 0-0.7 0.5-1.1 1.1-1.1 0.7 0 1.1 0.4 1.1 1.1 0 0.7-0.4 1.1-1.1 1.1zm0-4.8c-0.6 0-1.1-0.5-1.1-1.1 0-0.7 0.5-1.2 1.1-1.2 0.7 0 1.1 0.5 1.1 1.2 0 0.6-0.4 1.1-1.1 1.1z"/>
	<path id="Layer" class="s9" d="m975 656h-80v-80h80z"/>
	<path id="Layer" class="s3" d="m928.5 378c0-0.6 0.5-1.1 1.2-1.1 0.6 0 1.1 0.5 1.1 1.1 0 0.7-0.5 1.1-1.1 1.1-0.7 0-1.2-0.4-1.2-1.1zm4.9 0c0-0.6 0.4-1.1 1.1-1.1 0.7 0 1.1 0.5 1.1 1.1 0 0.7-0.4 1.1-1.1 1.1-0.7 0-1.1-0.4-1.1-1.1zm4.8 0c0-0.6 0.5-1.1 1.1-1.1 0.7 0 1.2 0.5 1.2 1.1 0 0.7-0.5 1.1-1.2 1.1-0.6 0-1.1-0.4-1.1-1.1z"/>
	<path id="Layer" class="s3" d="m928.5 458c0-0.6 0.5-1.1 1.2-1.1 0.6 0 1.1 0.5 1.1 1.1 0 0.7-0.5 1.1-1.1 1.1-0.7 0-1.2-0.4-1.2-1.1zm4.9 0c0-0.6 0.4-1.1 1.1-1.1 0.7 0 1.1 0.5 1.1 1.1 0 0.7-0.4 1.1-1.1 1.1-0.7 0-1.1-0.4-1.1-1.1zm4.8 0c0-0.6 0.5-1.1 1.1-1.1 0.7 0 1.2 0.5 1.2 1.1 0 0.7-0.5 1.1-1.2 1.1-0.6 0-1.1-0.4-1.1-1.1z"/>
	<path id="Layer" class="s3" d="m928.5 538c0-0.6 0.5-1.1 1.2-1.1 0.6 0 1.1 0.5 1.1 1.1 0 0.7-0.5 1.1-1.1 1.1-0.7 0-1.2-0.4-1.2-1.1zm4.9 0c0-0.6 0.4-1.1 1.1-1.1 0.7 0 1.1 0.5 1.1 1.1 0 0.7-0.4 1.1-1.1 1.1-0.7 0-1.1-0.4-1.1-1.1zm4.8 0c0-0.6 0.5-1.1 1.1-1.1 0.7 0 1.2 0.5 1.2 1.1 0 0.7-0.5 1.1-1.2 1.1-0.6 0-1.1-0.4-1.1-1.1z"/>
	<path id="Layer" class="s3" d="m933.4 616c0-0.6 0.4-1.1 1.1-1.1 0.7 0 1.1 0.5 1.1 1.1 0 0.7-0.4 1.1-1.1 1.1-0.7 0-1.1-0.4-1.1-1.1z"/>
	<path id="Layer" class="s3" d="m928.3 611c0-0.6 0.4-1.1 1.1-1.1 0.7 0 1.2 0.5 1.2 1.1 0 0.7-0.5 1.1-1.2 1.1-0.6 0-1.1-0.4-1.1-1.1z"/>
	<path id="Layer" class="s3" d="m938.4 621c0-0.6 0.5-1.1 1.2-1.1 0.7 0 1.1 0.5 1.1 1.1 0 0.7-0.5 1.1-1.1 1.1-0.7 0-1.2-0.4-1.2-1.1z"/>
	<path id="Layer" class="s3" d="m696 621.5c-0.6 0-1.1-0.5-1.1-1.2 0-0.6 0.5-1.1 1.1-1.1 0.7 0 1.1 0.5 1.1 1.1 0 0.7-0.4 1.2-1.1 1.2zm0-4.9c-0.6 0-1.1-0.4-1.1-1.1 0-0.7 0.5-1.1 1.1-1.1 0.7 0 1.1 0.4 1.1 1.1 0 0.7-0.4 1.1-1.1 1.1zm0-4.8c-0.6 0-1.1-0.5-1.1-1.1 0-0.7 0.5-1.2 1.1-1.2 0.7 0 1.1 0.5 1.1 1.2 0 0.6-0.4 1.1-1.1 1.1z"/>
	<path id="Layer" class="s3" d="m776 621.5c-0.6 0-1.1-0.5-1.1-1.2 0-0.6 0.5-1.1 1.1-1.1 0.7 0 1.1 0.5 1.1 1.1 0 0.7-0.4 1.2-1.1 1.2zm0-4.9c-0.6 0-1.1-0.4-1.1-1.1 0-0.7 0.5-1.1 1.1-1.1 0.7 0 1.1 0.4 1.1 1.1 0 0.7-0.4 1.1-1.1 1.1zm0-4.8c-0.6 0-1.1-0.5-1.1-1.1 0-0.7 0.5-1.2 1.1-1.2 0.7 0 1.1 0.5 1.1 1.2 0 0.6-0.4 1.1-1.1 1.1z"/>
	<path id="Layer" class="s3" d="m1016 621.5c-0.6 0-1.1-0.5-1.1-1.2 0-0.6 0.5-1.1 1.1-1.1 0.7 0 1.1 0.5 1.1 1.1 0 0.7-0.4 1.2-1.1 1.2zm0-4.9c-0.6 0-1.1-0.4-1.1-1.1 0-0.7 0.5-1.1 1.1-1.1 0.7 0 1.1 0.4 1.1 1.1 0 0.7-0.4 1.1-1.1 1.1zm0-4.8c-0.6 0-1.1-0.5-1.1-1.1 0-0.7 0.5-1.2 1.1-1.2 0.7 0 1.1 0.5 1.1 1.2 0 0.6-0.4 1.1-1.1 1.1z"/>
	<path id="Layer" class="s3" d="m831.1 700.1h3.3l2-11.2h-3.3l0.2-1.4h8.5l-0.3 1.4h-3.3l-1.9 11.2h3.3l-0.3 1.4h-8.5z"/>
	<path id="Layer" class="s3" d="m844.3 697.3h1.4l4.5 9.3 1.6-9.3h1.5l-2.1 11.7h-1.4l-4.4-9.2-1.7 9.2h-1.4z"/>
	<path id="Layer" class="s3" d="m857.8 695.8c0-0.7 0.5-1.2 1.3-1.2 0.6 0 1 0.4 1 1 0 0.7-0.6 1.2-1.3 1.2-0.6 0-1-0.4-1-1zm9.5-6.8h-4.2l0.3-1.5h10.2l-0.3 1.5h-4.2l-2.2 12.5h-1.8z"/>
	<path id="Layer" class="s3" d="m880.5 698.6l-3.9 3.8c1.9 0.1 3.4 1.3 3.4 3 0 2.3-1.9 3.8-4.4 3.8-2 0-3.9-1.1-3.7-3.4h1.3c-0.1 1.4 1 2.2 2.5 2.2 1.5 0 2.8-1 2.8-2.4 0-1.3-1.1-2.1-2.6-2.1h-1.2l0.2-1.1 3.7-3.9h-4.9l0.2-1.2h6.8z"/>
	<path id="Layer" class="s3" d="m992.1 380.1h3.3l2-11.2h-3.3l0.2-1.4h8.5l-0.3 1.4h-3.3l-1.9 11.2h3.3l-0.3 1.4h-8.5z"/>
	<path id="Layer" class="s3" d="m1007.5 378.9l-2.6 1 0.2-1.3 2.9-1.3h1.2l-2 11.7h-1.5z"/>
	<path id="Layer" class="s3" d="m1014.8 375.8c0-0.7 0.5-1.2 1.3-1.2 0.6 0 1 0.4 1 1 0 0.7-0.6 1.2-1.3 1.2-0.6 0-1-0.4-1-1zm9.5-6.8h-4.2l0.3-1.5h10.2l-0.3 1.5h-4.2l-2.2 12.5h-1.8z"/>
	<path id="Layer" class="s3" d="m1031.3 377.3h1.4l4.5 9.3 1.6-9.3h1.5l-2.1 11.7h-1.4l-4.4-9.3-1.7 9.3h-1.4z"/>
	<path id="Layer" class="s3" d="m991.1 460.1h3.3l2-11.2h-3.3l0.2-1.4h8.5l-0.3 1.4h-3.3l-1.9 11.2h3.3l-0.3 1.4h-8.5z"/>
	<path id="Layer" class="s3" d="m1002.1 467.8l5.8-5c0.8-0.7 1.6-1.6 1.6-2.7 0-1.1-0.9-1.8-2-1.8-1.5 0-2.2 0.8-2.5 2.2v0.2h-1.5l0.1-0.3c0.4-2.2 1.7-3.3 4-3.3 1.8 0 3.4 1.1 3.4 2.9 0 1.6-1 2.6-2.3 3.8l-4.7 4h5.8l-0.3 1.2h-7.6z"/>
	<path id="Layer" class="s3" d="m1015.8 455.8c0-0.7 0.5-1.2 1.3-1.2 0.6 0 1 0.4 1 1 0 0.7-0.6 1.2-1.3 1.2-0.6 0-1-0.4-1-1zm9.5-6.8h-4.2l0.3-1.5h10.2l-0.3 1.5h-4.2l-2.2 12.5h-1.8z"/>
	<path id="Layer" class="s3" d="m1032.3 457.3h1.4l4.5 9.3 1.6-9.3h1.5l-2.1 11.7h-1.4l-4.4-9.3-1.7 9.3h-1.4z"/>
	<path id="Layer" class="s3" d="m991.1 540.1h3.3l2-11.2h-3.3l0.2-1.4h8.5l-0.3 1.4h-3.3l-1.9 11.2h3.3l-0.3 1.4h-8.5z"/>
	<path id="Layer" class="s3" d="m1011.5 538.6l-3.9 3.8c1.9 0.1 3.4 1.3 3.4 3 0 2.3-1.9 3.8-4.4 3.8-2 0-3.9-1.1-3.7-3.4h1.3c-0.1 1.4 1 2.2 2.5 2.2 1.5 0 2.7-1 2.7-2.4 0-1.3-1-2.1-2.5-2.1h-1.2l0.2-1.1 3.7-3.9h-4.9l0.2-1.2h6.8z"/>
	<path id="Layer" class="s3" d="m1015.8 535.8c0-0.7 0.5-1.2 1.3-1.2 0.6 0 1 0.4 1 1 0 0.7-0.6 1.2-1.3 1.2-0.6 0-1-0.4-1-1zm9.5-6.8h-4.2l0.3-1.5h10.2l-0.3 1.5h-4.2l-2.2 12.5h-1.8z"/>
	<path id="Layer" class="s3" d="m1032.3 537.3h1.4l4.5 9.3 1.6-9.3h1.5l-2.1 11.7h-1.4l-4.4-9.2-1.7 9.2h-1.4z"/>
	<path id="Layer" class="s9" d="m1055 736h-80v-80h80z"/>
	<path id="Layer" class="s3" d="m990.1 700.1h3.3l2-11.2h-3.3l0.2-1.4h8.5l-0.3 1.4h-3.3l-1.9 11.2h3.3l-0.3 1.4h-8.5z"/>
	<path id="Layer" class="s3" d="m1003.3 697.3h1.4l4.5 9.3 1.6-9.3h1.5l-2.1 11.7h-1.4l-4.4-9.2-1.7 9.2h-1.4z"/>
	<path id="Layer" class="s3" d="m1017.8 695.8c0-0.7 0.5-1.2 1.3-1.2 0.6 0 1 0.4 1 1 0 0.7-0.6 1.2-1.3 1.2-0.6 0-1-0.4-1-1zm9.5-6.8h-4.2l0.3-1.5h10.2l-0.3 1.5h-4.2l-2.2 12.5h-1.8z"/>
	<path id="Layer" class="s3" d="m1034.3 697.3h1.4l4.5 9.3 1.6-9.3h1.5l-2.1 11.7h-1.4l-4.4-9.2-1.7 9.2h-1.4z"/>
</svg>